Coordinates
version=1
nRows=13
nColumns=40
inDegrees=yes

Units are S.I. units (second, meters, Newtons, ...)
Angles are in degrees.

endheader
time	pelvis_tilt	pelvis_list	pelvis_rotation	pelvis_tx	pelvis_ty	pelvis_tz	hip_flexion_r	hip_adduction_r	hip_rotation_r	knee_angle_r	knee_angle_r_beta	ankle_angle_r	subtalar_angle_r	mtp_angle_r	hip_flexion_l	hip_adduction_l	hip_rotation_l	knee_angle_l	knee_angle_l_beta	ankle_angle_l	subtalar_angle_l	mtp_angle_l	lumbar_extension	lumbar_bending	lumbar_rotation	arm_flex_r	arm_add_r	arm_rot_r	elbow_flex_r	pro_sup_r	wrist_flex_r	wrist_dev_r	arm_flex_l	arm_add_l	arm_rot_l	elbow_flex_l	pro_sup_l	wrist_flex_l	wrist_dev_l
     32.44000000	     -4.14350436	     -2.39233722	      0.96184218	      1.05190162	      0.93102816	      0.38384747	     35.45111049	    -10.09647827	     -6.28876650	     73.78792731	     73.78792731	     -7.83620759	    -18.45195322	      5.58652838	     11.53255388	     -1.03757043	     -5.69234526	     19.47402637	     19.47402637	     14.42444607	     -9.68274618	     -0.63341104	    -11.59656531	      5.86453291	      2.34103618	    -10.81184463	    -15.29661884	    -13.77121733	     25.55223047	     46.59998131	      0.00000000	      0.00000000	      5.08855839	    -13.61587680	     -7.63157590	     73.09662633	     47.34668616	      0.00000000	      0.00000000
     32.45207143	     -4.06646789	     -2.29516544	      0.81433354	      1.05099308	      0.93162134	      0.38342105	     36.57801871	     -9.83628785	     -6.30303827	     72.79346833	     72.79346833	     -7.41982177	    -18.27223723	      5.04381009	     10.54571070	     -0.91640215	     -6.03790789	     18.71586012	     18.71586012	     14.60717688	     -9.16566427	     -0.58503107	    -11.88290570	      5.70448809	      2.37540893	    -11.65040950	    -15.43687347	    -13.96802882	     25.48839825	     46.61122281	      0.00000000	      0.00000000	      5.84784851	    -13.73109365	     -8.09031553	     75.06163727	     47.42509641	      0.00000000	      0.00000000
     32.46414286	     -4.02085515	     -2.20788717	      0.69075565	      1.05008744	      0.93220889	      0.38297594	     37.59026862	     -9.53479857	     -6.32811041	     71.56101864	     71.56101864	     -7.05302681	    -18.09764687	      4.53177556	      9.54058479	     -0.77408542	     -6.25879983	     17.83854979	     17.83854979	     14.76976223	     -8.62828349	     -0.47815620	    -12.22004397	      5.59536020	      2.35156637	    -12.48231086	    -15.58525885	    -14.13582513	     25.55427935	     46.61372678	      0.00000000	      0.00000000	      6.49730859	    -13.84150284	     -8.53000332	     77.01120946	     47.50023148	      0.00000000	      0.00000000
     32.47621429	     -3.99999166	     -2.18786583	      0.61207738	      1.04911989	      0.93251296	      0.38261117	     38.49841554	     -9.23343615	     -6.48475444	     70.11982935	     70.11982935	     -6.93562332	    -17.91115271	      3.40291538	      8.71100009	     -0.72310137	     -6.48022376	     17.20860923	     17.20860923	     15.01875382	     -8.16353591	     -0.42158807	    -12.48321606	      5.52951950	      1.80549609	    -13.20627297	    -15.73951135	    -14.48315299	     26.39902998	     46.59399585	      0.00000000	      0.00000000	      6.52486870	    -14.14957104	     -9.39857087	     79.98730702	     47.63830236	      0.00000000	      0.00000000
     32.48828571	     -3.96329449	     -2.15045991	      0.51074360	      1.04813419	      0.93284656	      0.38241990	     39.25209484	     -8.89609206	     -6.61362872	     68.40622429	     68.40622429	     -6.50287367	    -17.70463093	      3.23961872	      7.83302179	     -0.65063822	     -6.67078200	     16.49944425	     16.49944425	     15.18099955	     -7.76058291	     -0.32387798	    -12.73794702	      5.42092567	      1.84246116	    -13.82150669	    -15.87819855	    -14.50882359	     26.30928665	     46.59351318	      0.00000000	      0.00000000	      7.40773508	    -14.22507378	     -9.74995306	     81.23683743	     47.69648222	      0.00000000	      0.00000000
     32.50035714	     -3.97615191	     -2.14207166	      0.42755926	      1.04705841	      0.93293236	      0.38237891	     39.90185989	     -8.54641214	     -6.79513567	     66.38176185	     66.38176185	     -6.19035449	    -17.49132343	      2.65886087	      7.11275617	     -0.64825430	     -6.96595518	     15.96815896	     15.96815896	     15.42536173	     -7.20512601	     -0.25381481	    -13.00785147	      5.34186441	      1.51299476	    -14.38421771	    -16.01948812	    -14.61475392	     27.00580204	     46.56108286	      0.00000000	      0.00000000	      7.69122518	    -14.46406885	    -10.42294201	     83.67187313	     47.81211650	      0.00000000	      0.00000000
     32.51242857	     -4.00856773	     -2.14604821	      0.36239614	      1.04597599	      0.93293386	      0.38244376	     40.40678968	     -8.18219730	     -6.98298580	     64.02123392	     64.02123392	     -5.72955274	    -17.22917708	      2.55027780	      6.40982021	     -0.64562245	     -7.13569508	     15.40778486	     15.40778486	     15.60253888	     -6.77492934	     -0.21533298	    -13.19881717	      5.26720754	      1.48772604	    -14.82188264	    -16.09245641	    -14.60827165	     27.05739518	     46.55257552	      0.00000000	      0.00000000	      8.50217261	    -14.55365747	    -10.71363388	     84.95779805	     47.86814271	      0.00000000	      0.00000000
     32.52450000	     -4.08360565	     -2.16085217	      0.30974503	      1.04489189	      0.93270812	      0.38268254	     40.76800309	     -7.81874735	     -7.21446537	     61.30025777	     61.30025777	     -5.24034280	    -16.93789484	      2.29856140	      5.81424002	     -0.68648228	     -7.37425378	     14.96319118	     14.96319118	     15.83880496	     -6.23900216	     -0.26205922	    -13.36807628	      5.19202174	      1.35279776	    -15.14327480	    -16.14426473	    -14.64013153	     27.37412312	     46.53558225	      0.00000000	      0.00000000	      9.08472000	    -14.71525257	    -11.00174978	     86.55980810	     47.93070087	      0.00000000	      0.00000000
     32.53657143	     -4.22044736	     -2.20088583	      0.27303615	      1.04382701	      0.93224501	      0.38306958	     40.96792579	     -7.45515256	     -7.53415142	     58.15581099	     58.15581099	     -4.92676967	    -16.68223948	      1.48067018	      5.38446643	     -0.80155320	     -7.73260523	     14.71101881	     14.71101881	     16.15018938	     -5.55954090	     -0.37561433	    -13.48569999	      5.12567268	      0.97832253	    -15.28103689	    -16.22294877	    -14.62882564	     28.12827403	     46.49400615	      0.00000000	      0.00000000	      9.29053595	    -14.97650246	    -11.49317431	     88.40277560	     48.02312218	      0.00000000	      0.00000000
     32.54864286	     -4.35076598	     -2.23575024	      0.23915474	      1.04288646	      0.93172832	      0.38355515	     40.95582166	     -7.07836591	     -7.83876493	     54.67599936	     54.67599936	     -4.31804122	    -16.21301289	      1.35333292	      4.87788088	     -0.87243225	     -7.90061308	     14.33356004	     14.33356004	     16.37651478	     -5.14604788	     -0.46101830	    -13.57798739	      5.07453570	      0.94383941	    -15.32536270	    -16.22533148	    -14.58813018	     28.28025245	     46.48181656	      0.00000000	      0.00000000	      9.97696186	    -15.06619954	    -11.60643600	     89.35021372	     48.06017459	      0.00000000	      0.00000000
     32.56071429	     -4.52930563	     -2.26588587	      0.25246735	      1.04210055	      0.93101928	      0.38409932	     40.76065938	     -6.74119630	     -8.23639103	     50.85048768	     50.85048768	     -3.67295966	    -15.59047414	      1.35476820	      4.47064820	     -0.95260981	     -8.03641984	     14.06126586	     14.06126586	     16.61892693	     -4.75735891	     -0.60940101	    -13.55821938	      5.02801837	      0.82903242	    -15.27385296	    -16.22629981	    -14.58295621	     28.47954004	     46.47181261	      0.00000000	      0.00000000	     10.52354798	    -15.17644465	    -11.63405879	     90.14168216	     48.08498110	      0.00000000	      0.00000000
     32.57278571	     -4.68831647	     -2.29227254	      0.22176777	      1.04155535	      0.93014002	      0.38487540	     40.27508591	     -6.36849212	     -8.67174229	     46.63759764	     46.63759764	     -3.40634745	    -14.95061792	      0.22871926	      4.07031439	     -1.13299641	     -8.72962430	     13.91129710	     13.91129710	     17.01466211	     -3.59281724	     -1.00758395	    -13.61671308	      4.90741702	      0.53881861	    -15.13790310	    -16.19530842	    -14.50478930	     29.31680612	     46.42313730	      0.00000000	      0.00000000	     10.62959382	    -15.45297649	    -11.82879732	     91.78582066	     48.15635598	      0.00000000	      0.00000000
     32.58485714	     -4.87164718	     -2.29518567	      0.25636276	      1.04128901	      0.92917646	      0.38561755	     39.60928303	     -6.02529279	     -9.14103223	     42.26362707	     42.26362707	     -2.71781956	    -13.89682975	      0.47452288	      3.61451907	     -1.18427077	     -8.80088289	     13.61050069	     13.61050069	     17.27644833	     -3.26183161	     -1.15142205	    -13.53634033	      4.81803985	      0.48117873	    -14.90417940	    -16.13663849	    -14.44959149	     29.51383375	     46.41112129	      0.00000000	      0.00000000	     11.13327877	    -15.49260555	    -11.77894647	     92.24525889	     48.16979355	      0.00000000	      0.00000000
